<?xml version="1.0" encoding="UTF-8" standalone="no"?>
<!DOCTYPE svg PUBLIC "-//W3C//DTD SVG 1.1//EN" "http://www.w3.org/Graphics/SVG/1.1/DTD/svg11.dtd">
<svg width="100%" height="100%" viewBox="0 0 600 90" version="1.1" xmlns="http://www.w3.org/2000/svg" xmlns:xlink="http://www.w3.org/1999/xlink" xml:space="preserve" xmlns:serif="http://www.serif.com/" style="fill-rule:evenodd;clip-rule:evenodd;stroke-linejoin:round;stroke-miterlimit:2;">
    <g id="Layer_1">
        <path d="M8.3,26.5C6.9,25.1 6.2,23.5 6.2,21.6C6.2,19.7 6.9,18.1 8.3,16.8C9.6,15.4 11.2,14.7 13.1,14.7C15,14.7 16.7,15.4 18,16.8L56.7,55.5L56.7,21.6C56.7,19.7 57.4,18.1 58.8,16.8C60.1,15.4 61.7,14.7 63.6,14.7C65.5,14.7 67.1,15.4 68.5,16.8C69.8,18.1 70.5,19.7 70.5,21.6L70.5,72.1C70.5,74 69.8,75.6 68.5,77C67.1,78.3 65.5,79 63.6,79C61.7,79 60.1,78.3 58.8,77L8.3,26.5Z" style="fill:rgb(22,107,189);fill-rule:nonzero;"/>
        <path d="M75.1,21.6C75.1,19.7 75.8,18.1 77.1,16.8C78.5,15.4 80.1,14.7 82,14.7C83.9,14.7 85.5,15.4 86.8,16.8C88.2,18.1 88.9,19.7 88.9,21.6L88.9,72.1C88.9,74 88.2,75.6 86.8,77C85.5,78.3 83.9,79 82,79C80.1,79 78.5,78.3 77.1,77C75.8,75.6 75.1,74 75.1,72.1L75.1,21.6Z" style="fill:white;fill-rule:nonzero;"/>
        <path d="M107.2,72.1C107.2,74 106.6,75.6 105.2,77C103.9,78.3 102.2,79 100.3,79C98.4,79 96.8,78.3 95.5,77C94.1,75.6 93.5,74 93.5,72.1L93.5,21.6C93.5,19.7 94.1,18.1 95.5,16.8C96.8,15.4 98.4,14.7 100.3,14.7L138.2,14.7C143.6,14.7 148.2,16.6 152,20.5C155.8,24.3 157.7,28.9 157.7,34.2C157.7,39.6 155.8,44.2 152,48C149.1,51 145.7,52.8 141.9,53.4L155.7,67.2C157,68.6 157.7,70.2 157.7,72.1C157.7,74 157,75.6 155.7,77C154.3,78.3 152.7,79 150.8,79C148.9,79 147.3,78.3 146,77L120.7,51.7C119.4,50.4 118.7,48.8 118.7,46.9C118.7,45 119.4,43.4 120.7,42C122.1,40.7 123.7,40 125.6,40L138.2,40C139.8,40 141.2,39.4 142.3,38.3C143.4,37.2 143.9,35.8 143.9,34.2C143.9,32.7 143.4,31.3 142.3,30.2C141.2,29.1 139.8,28.5 138.2,28.5L107.2,28.5L107.2,72.1Z" style="fill:white;fill-rule:nonzero;"/>
        <path d="M169.2,28.5C167.3,28.5 165.7,27.8 164.3,26.5C163,25.1 162.3,23.5 162.3,21.6C162.3,19.7 163,18.1 164.3,16.8C165.7,15.4 167.3,14.7 169.2,14.7L219.7,14.7C221.6,14.7 223.2,15.4 224.5,16.8C225.9,18.1 226.6,19.7 226.6,21.6C226.6,23.5 225.9,25.1 224.5,26.5C223.2,27.8 221.6,28.5 219.7,28.5L201.3,28.5L201.3,72.1C201.3,74 200.6,75.6 199.3,77C198,78.3 196.3,79 194.4,79C192.5,79 190.9,78.3 189.6,77C188.2,75.6 187.5,74 187.5,72.1L187.5,28.5L169.2,28.5Z" style="fill:white;fill-rule:nonzero;"/>
        <path d="M288.5,40C290.4,40 292,40.7 293.4,42C294.7,43.4 295.4,45 295.4,46.9C295.4,48.8 294.7,50.4 293.4,51.7C292,53.1 290.4,53.8 288.5,53.8L263.3,53.8C261.4,53.8 259.8,53.1 258.4,51.7C257.1,50.4 256.4,48.8 256.4,46.9C256.4,45 257.1,43.4 258.4,42C259.8,40.7 261.4,40 263.3,40L288.5,40ZM244.9,72.1C244.9,74 244.2,75.6 242.9,77C241.6,78.3 239.9,79 238,79C236.1,79 234.5,78.3 233.2,77C231.8,75.6 231.2,74 231.2,72.1L231.2,46.9C231.2,38 234.3,30.4 240.6,24.2C246.8,17.9 254.4,14.7 263.3,14.7L288.5,14.7C290.4,14.7 292,15.4 293.4,16.8C294.7,18.1 295.4,19.7 295.4,21.6C295.4,23.5 294.7,25.1 293.4,26.5C292,27.8 290.4,28.5 288.5,28.5L263.3,28.5C258.2,28.5 253.9,30.3 250.3,33.9C246.7,37.5 244.9,41.8 244.9,46.9L244.9,72.1Z" style="fill:white;fill-rule:nonzero;"/>
        <path d="M300,21.6C300,19.7 300.7,18.1 302,16.8C303.4,15.4 305,14.7 306.9,14.7C308.8,14.7 310.4,15.4 311.8,16.8C313.1,18.1 313.8,19.7 313.8,21.6L313.8,46.9C313.8,52 315.6,56.3 319.1,59.9C322.7,63.4 327,65.2 332.1,65.2C337.2,65.2 341.5,63.4 345.1,59.9C348.7,56.3 350.5,52 350.5,46.9L350.5,21.6C350.5,19.7 351.2,18.1 352.5,16.8C353.9,15.4 355.5,14.7 357.4,14.7C359.3,14.7 360.9,15.4 362.2,16.8C363.6,18.1 364.3,19.7 364.3,21.6L364.3,46.9C364.3,55.7 361.1,63.3 354.8,69.6C348.6,75.9 341,79 332.1,79C323.3,79 315.7,75.9 309.4,69.6C303.1,63.3 300,55.7 300,46.9L300,21.6Z" style="fill:white;fill-rule:nonzero;"/>
        <path d="M426.2,14.7C428.1,14.7 429.7,15.4 431.1,16.8C432.4,18.1 433.1,19.7 433.1,21.6C433.1,23.5 432.4,25.1 431.1,26.5C429.7,27.8 428.1,28.5 426.2,28.5L388.4,28.5C386.8,28.5 385.4,29.1 384.3,30.2C383.2,31.3 382.6,32.7 382.6,34.2C382.6,35.8 383.2,37.2 384.3,38.3C385.4,39.4 386.8,40 388.4,40L413.6,40C419,40 423.6,41.9 427.4,45.7C431.2,49.5 433.1,54.1 433.1,59.5C433.1,64.9 431.2,69.5 427.4,73.3C423.6,77.1 419,79 413.6,79L375.7,79C373.8,79 372.2,78.3 370.9,77C369.5,75.6 368.8,74 368.8,72.1C368.8,70.2 369.5,68.6 370.9,67.2C372.2,65.9 373.8,65.2 375.7,65.2L413.6,65.2C415.2,65.2 416.5,64.7 417.7,63.6C418.8,62.4 419.3,61.1 419.3,59.5C419.3,57.9 418.8,56.5 417.7,55.4C416.5,54.3 415.2,53.8 413.6,53.8L388.4,53.8C383,53.8 378.4,51.9 374.6,48C370.8,44.2 368.8,39.6 368.8,34.2C368.8,28.9 370.8,24.3 374.6,20.5C378.4,16.6 383,14.7 388.4,14.7L426.2,14.7Z" style="fill:white;fill-rule:nonzero;"/>
        <path d="M437.7,21.6C437.7,19.7 438.4,18.1 439.7,16.8C441.1,15.4 442.7,14.7 444.6,14.7C446.5,14.7 448.1,15.4 449.4,16.8C450.8,18.1 451.5,19.7 451.5,21.6L451.5,72.1C451.5,74 450.8,75.6 449.4,77C448.1,78.3 446.5,79 444.6,79C442.7,79 441.1,78.3 439.7,77C438.4,75.6 437.7,74 437.7,72.1L437.7,21.6Z" style="fill:white;fill-rule:nonzero;"/>
        <path d="M488.2,14.7C497.1,14.7 504.6,17.9 510.9,24.2C517.2,30.4 520.3,38 520.3,46.9C520.3,55.7 517.2,63.3 510.9,69.6C504.6,75.9 497.1,79 488.2,79C479.3,79 471.7,75.9 465.5,69.6C459.2,63.3 456.1,55.7 456.1,46.9C456.1,38 459.2,30.4 465.5,24.2C471.7,17.9 479.3,14.7 488.2,14.7ZM488.2,28.5C483.1,28.5 478.8,30.3 475.2,33.9C471.6,37.5 469.8,41.8 469.8,46.9C469.8,52 471.6,56.3 475.2,59.9C478.8,63.4 483.1,65.2 488.2,65.2C493.3,65.2 497.6,63.4 501.2,59.9C504.8,56.3 506.5,52 506.5,46.9C506.5,41.8 504.8,37.5 501.2,33.9C497.6,30.3 493.3,28.5 488.2,28.5Z" style="fill:white;fill-rule:nonzero;"/>
        <path d="M538.7,72.1C538.7,74 538,75.6 536.7,77C535.3,78.3 533.7,79 531.8,79C529.9,79 528.3,78.3 526.9,77C525.6,75.6 524.9,74 524.9,72.1L524.9,21.6C524.9,19.7 525.6,18.1 526.9,16.8C528.3,15.4 529.9,14.7 531.8,14.7C533.7,14.7 535.3,15.4 536.7,16.8L561.9,42L575.4,55.5L575.4,21.6C575.4,19.7 576.1,18.1 577.4,16.8C578.8,15.4 580.4,14.7 582.3,14.7C584.2,14.7 585.8,15.4 587.1,16.8C588.5,18.1 589.2,19.7 589.2,21.6L589.2,72.1C589.2,74 588.5,75.6 587.1,77C585.8,78.3 584.2,79 582.3,79C580.4,79 578.8,78.3 577.4,77L538.7,38.2L538.7,72.1Z" style="fill:white;fill-rule:nonzero;"/>
    </g>
</svg>
